<svg width="40" height="40" viewBox="0 0 40 40" fill="none" xmlns="http://www.w3.org/2000/svg">
<g clip-path="url(#clip0_1545_14817)">
<path d="M2.60002 35.8857L1.42859 15.8857C1.40423 15.6842 1.42308 15.4799 1.48388 15.2863C1.54468 15.0926 1.64604 14.9142 1.78121 14.7628C1.91637 14.6114 2.08224 14.4906 2.26777 14.4083C2.4533 14.326 2.65422 14.2842 2.85716 14.2857H16.0286C16.3488 14.2877 16.6595 14.3951 16.9125 14.5914C17.1656 14.7876 17.347 15.0618 17.4286 15.3714L18.5714 20H37.1429C37.3405 19.9994 37.5361 20.0397 37.7173 20.1186C37.8985 20.1974 38.0614 20.313 38.1957 20.458C38.33 20.603 38.4327 20.7743 38.4973 20.961C38.562 21.1477 38.5873 21.3459 38.5714 21.5429L37.4572 35.8286C37.3996 36.546 37.0733 37.2153 36.5436 37.7027C36.0139 38.19 35.3198 38.4594 34.6 38.4571H5.45716C4.7464 38.4607 4.05983 38.1992 3.53152 37.7237C3.0032 37.2483 2.67109 36.5929 2.60002 35.8857Z" stroke="#000001" stroke-width="2.31353" stroke-linecap="round" stroke-linejoin="round"/>
<path d="M9.99998 8.57145V2.85716C9.99998 2.47828 10.1505 2.11492 10.4184 1.84701C10.6863 1.5791 11.0497 1.42859 11.4285 1.42859H35.7143C36.0931 1.42859 36.4565 1.5791 36.7244 1.84701C36.9923 2.11492 37.1428 2.47828 37.1428 2.85716V14.2857" stroke="#000001" stroke-width="2.31353" stroke-linecap="round" stroke-linejoin="round"/>
<path d="M21.4286 8.57144H30" stroke="#000001" stroke-width="2.31353" stroke-linecap="round" stroke-linejoin="round"/>
</g>
<defs>
<clipPath id="clip0_1545_14817">
<rect width="40" height="40" fill="white"/>
</clipPath>
</defs>
</svg>
