<svg width="42" height="42" viewBox="0 0 42 42" fill="none" xmlns="http://www.w3.org/2000/svg">
<path d="M16.8012 18.9C20.2806 18.9 23.1012 16.0794 23.1012 12.6C23.1012 9.1206 20.2806 6.3 16.8012 6.3C13.3218 6.3 10.5012 9.1206 10.5012 12.6C10.5012 16.0794 13.3218 18.9 16.8012 18.9Z" fill="#2F345C"/>
<path d="M16.8012 23.1C23.76 23.1 29.4012 28.7412 29.4012 35.7H4.20117C4.20117 28.7412 9.84238 23.1 16.8012 23.1Z" fill="#2F345C"/>
<path d="M33.6012 14.7C33.6012 13.5402 32.661 12.6 31.5012 12.6C30.3414 12.6 29.4012 13.5402 29.4012 14.7V16.8H27.3012C26.1414 16.8 25.2012 17.7402 25.2012 18.9C25.2012 20.0598 26.1414 21 27.3012 21H29.4012V23.1C29.4012 24.2598 30.3414 25.2 31.5012 25.2C32.661 25.2 33.6012 24.2598 33.6012 23.1V21H35.7012C36.861 21 37.8012 20.0598 37.8012 18.9C37.8012 17.7402 36.861 16.8 35.7012 16.8H33.6012V14.7Z" fill="#2F345C"/>
</svg>
